#!OML:ASF H:\MichaelJackson\Top Level 1\Subject 1\Session 1\male.ASF
:FULLY-SPECIFIED
:DEGREES
448
root 6.30756 16.2652 -9.312 2.03265 -8.73561 3.23579
lowerback 4.91415 1.57843 -3.57239
upperback 1.6981 1.87016 -3.97071
thorax -0.987482 0.932911 -2.18971
lowerneck -7.26482 -3.12618 3.88116
upperneck 5.9948 -4.82276 3.10742
head 3.19001 -2.17692 0.0969729
rclavicle 3.10104e-014 1.90833e-014
rhumerus -52.4021 43.0115 -104.506
rradius 83.6591
rwrist 14.2584
rhand -9.12891 -8.13632
rfingers 7.12502
rthumb 16.8223 322.572
lclavicle 3.10104e-014 1.90833e-014
lhumerus -47.996 -25.655 95.9327
lradius 53.3708
lwrist 20.5537
lhand -13.9832 8.52471
lfingers 7.12502
lthumb 12.1453 38.1522
rfemur -44.5115 -5.92221 28.1598
rtibia 57.3153
rfoot -8.90168 25.3656
rtoes -20.6448
lfemur -29.9799 16.1138 -20.1373
ltibia 45.9047
lfoot -16.1476 4.90401
ltoes -2.13634
449
root 6.3119 16.2643 -9.2506 2.24935 -9.05523 3.32811
lowerback 4.85883 1.45607 -3.76734
upperback 1.67691 1.69794 -4.09819
thorax -0.981969 0.846484 -2.20148
lowerneck -7.45475 -3.11531 3.95621
upperneck 6.18139 -4.84737 3.25253
head 3.29368 -2.17406 0.124373
rclavicle -2.5842e-015 -5.56597e-015
rhumerus -52.8974 46.4179 -104.368
rradius 85.6656
rwrist 14.1894
rhand -6.48692 -6.90639
rfingers 7.12502
rthumb 19.3642 324.038
lclavicle -2.5842e-015 -5.56597e-015
lhumerus -47.75 -26.1501 95.6825
lradius 53.0453
lwrist 20.1879
lhand -13.5871 8.51423
lfingers 7.12502
lthumb 12.5272 38.1187
rfemur -45.3853 -5.55709 29.0983
rtibia 54.6961
rfoot -8.31199 27.0576
rtoes -20.1536
lfemur -30.0822 16.6249 -20.3236
ltibia 46.087
lfoot -16.4448 4.8455
ltoes -2.30866
450
root 6.31635 16.2672 -9.19265 2.40337 -9.33027 3.4314
lowerback 4.87643 1.31641 -3.92983
upperback 1.66966 1.49995 -4.23476
thorax -1.00161 0.747412 -2.24132
lowerneck -7.6293 -3.12384 4.01663
upperneck 6.37015 -4.89804 3.41256
head 3.39643 -2.18353 0.158318
rclavicle -2.28602e-014 -2.8625e-014
rhumerus -53.2274 49.7226 -103.921
rradius 87.8208
rwrist 13.9401
rhand -3.92264 -6.08376
rfingers 7.12502
rthumb 21.8282 325.127
lclavicle -2.28602e-014 -2.8625e-014
lhumerus -47.5299 -26.6571 95.4265
lradius 52.7323
lwrist 19.8213
lhand -13.2175 8.507
lfingers 7.12502
lthumb 12.8836 38.0893
rfemur -46.2115 -5.55443 30.1463
rtibia 52.3628
rfoot -7.57531 27.8907
rtoes -19.0047
lfemur -30.0901 17.1266 -20.5141
ltibia 46.17
lfoot -16.6892 4.74643
ltoes -2.52081
451
root 6.32074 16.273 -9.13797 2.49873 -9.59409 3.54725
lowerback 4.94237 1.17834 -4.0717
upperback 1.67885 1.30231 -4.3748
thorax -1.03061 0.648567 -2.29719
lowerneck -7.77696 -3.15827 4.05835
upperneck 6.54659 -4.98089 3.57959
head 3.49082 -2.2094 0.196899
rclavicle -1.59028e-015 3.81667e-014
rhumerus -53.2918 52.8774 -103.056
rradius 90.1058
rwrist 13.4378
rhand -1.39127 -5.66775
rfingers 7.12502
rthumb 24.2571 325.847
lclavicle -1.59028e-015 3.81667e-014
lhumerus -47.3186 -27.1971 95.1828
lradius 52.4085
lwrist 19.4666
lhand -12.8351 8.46868
lfingers 7.12502
lthumb 13.2522 38.0274
rfemur -47.0344 -5.91703 31.3409
rtibia 50.4431
rfoot -6.86435 27.8858
rtoes -17.515
lfemur -30.0127 17.6183 -20.7066
ltibia 46.1775
lfoot -16.8903 4.65522
ltoes -2.80886
452
root 6.32506 16.2796 -9.08756 2.53003 -9.83882 3.68235
lowerback 5.07872 1.04367 -4.20985
upperback 1.70033 1.1045 -4.513
thorax -1.08624 0.549831 -2.35436
lowerneck -7.88021 -3.2234 4.07502
upperneck 6.69861 -5.09935 3.74967
head 3.5692 -2.25441 0.240091
rclavicle -3.12092e-014 3.89618e-014
rhumerus -52.95 55.8325 -101.636
rradius 92.486
rwrist 12.6283
rhand 1.19278 -5.56514
rfingers 7.12502
rthumb 26.7323 326.303
lclavicle -3.12092e-014 3.89618e-014
lhumerus -47.1075 -27.7801 94.9673
lradius 52.0625
lwrist 19.1414
lhand -12.3985 8.43923
lfingers 7.12502
lthumb 13.673 37.9701
rfemur -47.892 -6.66074 32.7066
rtibia 49.0384
rfoot -6.39191 27.1445
rtoes -16.3246
lfemur -29.8583 18.0656 -20.9026
ltibia 46.1288
lfoot -17.047 4.60215
ltoes -3.17076
453
root 6.32932 16.2864 -9.04113 2.47852 -10.0993 3.85252
lowerback 5.29918 0.926185 -4.36859
upperback 1.73817 0.922318 -4.65048
thorax -1.17213 0.459067 -2.40114
lowerneck -7.94713 -3.3198 4.064
upperneck 6.8313 -5.25383 3.91696
head 3.6348 -2.31894 0.286106
rclavicle -1.98785e-015 5.56597e-015
rhumerus -52.0311 58.5468 -99.5071
rradius 94.9172
rwrist 11.4807
rhand 3.84252 -5.72429
rfingers 7.12502
rthumb 29.2653 326.558
lclavicle -1.98785e-015 5.56597e-015
lhumerus -46.8735 -28.4006 94.7803
lradius 51.6709
lwrist 18.8495
lhand -11.9015 8.4046
lfingers 7.12502
lthumb 14.1519 37.9026
rfemur -48.7937 -7.74254 34.2272
rtibia 48.2215
rfoot -6.18768 25.8461
rtoes -15.7556
lfemur -29.6073 18.4679 -21.1082
ltibia 46.0406
lfoot -17.1675 4.62751
ltoes -3.61247
454
root 6.33376 16.2926 -8.99825 2.33577 -10.4009 4.0546
lowerback 5.59694 0.833728 -4.55502
upperback 1.80488 0.766543 -4.78136
thorax -1.27136 0.381435 -2.42756
lowerneck -7.99245 -3.44233 4.02606
upperneck 6.93879 -5.43732 4.07563
head 3.6883 -2.39986 0.33295
rclavicle -1.94809e-014 -6.67916e-014
rhumerus -50.2991 60.9707 -96.4628
rradius 97.3479
rwrist 9.96612
rhand 6.60463 -6.08358
rfingers 7.12502
rthumb 31.8993 326.69
lclavicle -1.94809e-014 -6.67916e-014
lhumerus -46.5878 -29.0521 94.6156
lradius 51.2373
lwrist 18.5948
lhand -11.277 8.443
lfingers 7.12502
lthumb 14.7536 37.8979
rfemur -49.7483 -9.09692 35.8832
rtibia 48.0261
rfoot -6.18529 24.2037
rtoes -15.7406
lfemur -29.2505 18.8236 -21.3119
ltibia 45.9296
lfoot -17.26 4.75947
ltoes -4.13186
